<svg width="24" height="24" viewBox="0 0 24 24" fill="none" xmlns="http://www.w3.org/2000/svg">
<path d="M8 17V15H10.175C10.0917 15.3333 10.0377 15.6667 10.013 16C9.98833 16.3333 9.99233 16.6667 10.025 17H8ZM8 22C6.61667 22 5.43767 21.5123 4.463 20.537C3.48833 19.5617 3.00067 18.3827 3 17V8C2.45 8 1.97933 7.80433 1.588 7.413C1.19667 7.02167 1.00067 6.55067 1 6V4C1 3.45 1.196 2.97933 1.588 2.588C1.98 2.19667 2.45067 2.00067 3 2H13C13.55 2 14.021 2.196 14.413 2.588C14.805 2.98 15.0007 3.45067 15 4V6C15 6.55 14.8043 7.021 14.413 7.413C14.0217 7.805 13.5507 8.00067 13 8V11.025C12.6 11.275 12.2333 11.5667 11.9 11.9C11.5667 12.2333 11.275 12.6 11.025 13H8V11H11V8H5V17C5 17.8333 5.29167 18.5417 5.875 19.125C6.45833 19.7083 7.16667 20 8 20C8.5 20 8.95433 19.8917 9.363 19.675C9.77167 19.4583 10.1173 19.1583 10.4 18.775C10.5333 19.1083 10.6833 19.425 10.85 19.725C11.0167 20.025 11.2167 20.3167 11.45 20.6C11 21.0333 10.4833 21.375 9.9 21.625C9.31667 21.875 8.68333 22 8 22ZM3 6H13V4H3V6ZM16.5 19C17.2 19 17.7917 18.7583 18.275 18.275C18.7583 17.7917 19 17.2 19 16.5C19 15.8 18.7583 15.2083 18.275 14.725C17.7917 14.2417 17.2 14 16.5 14C15.8 14 15.2083 14.2417 14.725 14.725C14.2417 15.2083 14 15.8 14 16.5C14 17.2 14.2417 17.7917 14.725 18.275C15.2083 18.7583 15.8 19 16.5 19ZM21.6 23L18.9 20.3C18.5333 20.5333 18.15 20.7083 17.75 20.825C17.35 20.9417 16.9333 21 16.5 21C15.25 21 14.1877 20.5627 13.313 19.688C12.4383 18.8133 12.0007 17.7507 12 16.5C11.9993 15.2493 12.437 14.187 13.313 13.313C14.189 12.439 15.2513 12.0013 16.5 12C17.7487 11.9987 18.8113 12.4363 19.688 13.313C20.5647 14.1897 21.002 15.252 21 16.5C21 16.9333 20.9417 17.35 20.825 17.75C20.7083 18.15 20.5333 18.5333 20.3 18.9L23 21.6L21.6 23Z" fill="#000625"/>
</svg>
